<svg id="Capa_1" data-name="Capa 1" xmlns="http://www.w3.org/2000/svg" viewBox="0 0 2000 2000"><defs><style>.cls-1{fill:#67059e;}.cls-2{fill:#fff;}</style></defs><title>ICONOS</title><circle class="cls-1" cx="1004.95" cy="947.24" r="766.76"/><path class="cls-2" d="M658,784.41l18.62,13.47c-5.82,25.14-14.39,46.35-15,67.79-1.88,65.09-1.44,130.28,0,195.39.26,12,7.09,25.73,15,35.19,16.5,19.64,18.46,47.9,1.3,64.78a43.88,43.88,0,0,1-62-.07c-16.6-16.45-15.32-42.84-.54-62.79,8-10.83,14.89-25.46,15.21-38.55,1.55-63.1-.78-126.3,1.38-189.37,1-27.85,9.31-55.44,15.33-88.88l-32.17-21.18c28.23-16.69,54.47-32.34,80.84-47.78,100-58.6,200.45-116.6,299.92-176.18,17.21-10.31,29.41-9.37,45.7.27,122.12,72.28,244.69,143.8,367.1,215.59,3.34,2,6.41,4.4,13.2,9.09-14.61,8.61-27,15.9-39.33,23.15-114.71,67.22-229.29,134.65-344.4,201.18-8.66,5-23.89,8.61-31.24,4.41C902.1,930,798.09,868.54,686,802.85c35.4-5.36,62.81-10.21,90.39-13.54,72.41-8.73,144.91-16.81,217.37-25.14,2-.23,4.35.25,5.93-.66,10.83-6.25,21.5-12.79,32.22-19.23-11.91-3.43-24.28-10.92-35.67-9.66-100.3,11.07-200.45,23.44-300.55,36.23C684.25,772.31,673.44,778.7,658,784.41Z"/><path class="cls-2" d="M1314.94,859c0,56.4,1.49,107.45-.49,158.36-1.51,38.82-28.76,63.3-58.92,81.69-84.87,51.76-178.87,66-276.3,59.11-68.12-4.85-134-20.17-193.58-56-44.92-27-68.64-64.51-65.92-118.56,2-39.83.4-79.84.4-125.42,11.65,6.35,20,10.62,28,15.32,81.88,47.81,164.17,94.93,245.23,144.1,19.39,11.76,33.11,10.2,51.41-.76,82.19-49.18,165.17-97,247.88-145.37C1298.48,868,1304.44,864.82,1314.94,859Z"/><path class="cls-2" d="M649,1185.89c9,49.13,18,98.26,27.55,150L588,1365.6c19.39-63.15,37.3-121.49,55.22-179.82Z"/></svg>