<svg id="Capa_1" data-name="Capa 1" xmlns="http://www.w3.org/2000/svg" viewBox="0 0 2000 2000"><defs><style>.cls-1{fill:#67059e;}.cls-2{fill:#fff;}</style></defs><title>ICONOS</title><circle class="cls-1" cx="1029.85" cy="1000.24" r="766.76"/><path class="cls-2" d="M1209.91,1098.3c20.35,12.37,38.44,23.33,56.48,34.37,2.45,1.49,5.74,2.9,6.8,5.19,31,67.3,96.72,103.07,142.14,157.23,2.5,3,5.5,5.52,8.06,8.45,24.85,28.37,25,61.26.45,86.28s-58.49,27-86.48,2.32c-26.27-23.11-50.29-48.79-75.24-73.39-19.41-19.14-38.13-39-58.4-57.21-7.84-7-19.21-10-28.71-15.36-4.75-2.65-10.5-5.42-13.07-9.75-10.76-18.09-20.49-36.8-31.85-57.57-69.81,43.65-139.52,61.23-215.53,56-154.91-10.65-283.13-139-296-298.22-12.26-151.36,93-297.93,239.2-334.64,84.88-21.3,165.76-12.32,242.33,29.69,8.93,4.89,13.44,17.84,20,27-11.86.15-25.94,4.61-35.25-.19-179.17-92.2-385.9,2.79-427.73,197.39-32.89,153,62.63,301.31,219.2,340.23,149.73,37.22,307.27-54.81,348.47-203.88,21.16-76.56,11.9-149.82-25.42-219.71-2.28-4.28-7-8.34-7-12.52,0-8.5,2.34-17,3.73-25.53,7.9,3.23,19.28,4.17,23.13,10a292,292,0,0,1,47.46,138.72C1272.51,958.22,1256.92,1028.11,1209.91,1098.3Zm1,122.52c50,50,97.16,99,146.89,145.24,7.89,7.33,32.18,7.94,40,1.27,7.3-6.27,9.09-32,2.44-39.38-46.66-51.57-96.13-100.59-146-151.76Zm-50.9-51,25.51,28.73,40-39.44-24.45-32.92C1186.58,1141.6,1174.61,1154.32,1160.05,1169.79Z"/><path class="cls-2" d="M940.76,1158.5c-119.17,3.2-246.61-93.18-245.65-246.52.89-139.5,109.62-243.08,248.6-244.81,136.69-1.7,248,112.29,246.93,249.31C1189.6,1057.19,1068.31,1164.29,940.76,1158.5Zm-212-244.28c-5.9,91,70.59,212.12,215.59,213.65,117,1.24,213.24-96.61,214.15-213.34.92-118.59-94.9-213.75-215.26-213.79C822.24,700.71,728.75,793.76,728.78,914.22Z"/><path class="cls-2" d="M878.29,891.24c-22.52-56.51-15.86-101,19.09-127.48,27-20.47,64.13-20.26,92,.53,34.18,25.47,41.12,69.87,18.66,126.72,6.39,2.92,13,5.86,19.48,8.9,30.59,14.24,53.92,36.7,61.73,69.37,10.72,44.81,12.94,56.81-40.08,55.44-75.77-2-151.63-1-227.44-.17-20.87.23-29.49-5.54-29-28C793.75,949.67,819.14,916.84,878.29,891.24Zm-51,100.14h232.64c-9.65-45.13-34.25-66.71-76.21-67.51-29.11-.55-58.28-.93-87.35.28C859.43,925.69,833.07,951.66,827.29,991.38ZM986.8,835.22c0-34.73-14.71-53.31-42.67-54-28.66-.74-45.84,19.89-45.73,54.93.1,34.17,15.66,53.19,43.82,53.57C972.73,890.1,986.85,872.86,986.8,835.22Z"/></svg>