<svg id="Capa_1" data-name="Capa 1" xmlns="http://www.w3.org/2000/svg" viewBox="0 0 2000 2000"><defs><style>.cls-1{fill:#67059e;}.cls-2{fill:#fff;}</style></defs><title>ICONOS</title><circle class="cls-1" cx="973.08" cy="938.24" r="766.76"/><path class="cls-2" d="M659.31,1013.23c11.45,12.59,17.62,21.45,25.7,27.91,44.45,35.54,41.58,114.64-5.56,142.08-33.71,19.63-78.6,7.47-97.84-26.49-22.58-39.85-10.14-97.6,26-118.88,8.74-5.13,18.53-8.45,29.89-13.52-8-41.09,16-44.9,49.84-44.24,89.19,1.77,178.43.6,270.28.6V916.83C947,926.18,939.94,934.62,931,939.45c-7.6,4.1-17.46,4-26.31,5.77,2.45-8.82,2.48-19.65,7.83-26.05,13.14-15.74,28.72-29.46,43.34-44,1.62-1.62,3.66-4.66,5-4.41,11.4,2.17,26.56,1.24,33.26,8.25,18.71,19.55,33.89,42.47,50.47,64.06-6.91.8-15.65,4.64-20.35,1.8-10.45-6.32-18.89-16-31.67-27.44v63.22h87c66.38,0,132.78-.62,199.14.65,10.52.2,30.13,9.72,29.81,13.62-2.43,29.24,19.13,36.81,37.2,50.11,29.83,22,35.18,88.27,12,119.15-23.07,30.67-65.17,37.49-97.45,15.78-43.73-29.41-43.45-109.2.39-140.41,8.25-5.87,16-12.41,24-18.65q-1.48-6-3-12H993.13l-5.21,7.93c7.55,6.74,14.27,14.88,22.8,20,35.18,21.07,38.36,54.22,35.4,89.9-2.51,30.37-18.43,50.35-47,61.14-35.84,13.52-79.56-6.82-91-43-14.34-45.45-.12-83.93,40.49-111.43,5-3.38,8.07-9.57,16.73-20.25Zm28.43,99.71c.66-35.87-15.37-56.72-43.72-56.88-27.09-.16-44.08,20.18-44.46,53.23-.36,31.34,17.5,54.82,42.55,55.94C667.81,1166.38,687.17,1144.2,687.74,1112.94Zm330.41-3.21c-.09-35.13-15.25-54-43.09-53.63-26.77.36-43.29,21.43-43.09,55,.19,33.09,17.8,54.64,44.24,54.13C1002.94,1164.67,1018.25,1144.43,1018.15,1109.73Zm239.95.44c0,35.76,14.5,54.85,41.93,55,27,.17,43.19-20.18,43.26-54.48.08-34.58-15.48-54.44-42.8-54.62C1272.75,1055.91,1258.15,1074.54,1258.1,1110.17Z"/><path class="cls-2" d="M844.47,465.63c6.76-55.43,6.76-55.43,56.48-55.44,48.08,0,96.17-.43,144.24.12,59.3.67,50.58-7.1,57.53,48.88,45.83,10,45.83,10,45.83,58,0,98.45-.79,196.91.51,295.35.36,27.44-9.67,36-36,35.71q-139.06-1.47-278.17,0c-26.63.28-36.48-9.19-36.2-36.1,1-99.58.69-199.19.23-298.78C798.76,482.54,794.6,450,844.47,465.63Zm273.31,353.22V493H832.15V818.54h68.59c19.82-26.32-23-87.17,48.87-79,26.92,3,60-5.59,79.32,7.39,13.61,9.12,8.78,45.75,12.43,72Zm-142-380.76c-26.3,0-52.62-.65-78.87.5-6,.26-11.77,6.72-17.65,10.33,6,4.86,12,13.82,18.07,13.95,52.57,1.1,105.18,1,157.75,0,5.4-.1,10.66-8.29,16-12.72-5.46-4-10.78-11.22-16.42-11.49C1028.39,437.43,1002.07,438.12,975.77,438.09ZM935.71,817.88h70V767.65h-70Z"/><path class="cls-2" d="M646.32,1244.31c9.83-7.66,18.79-14.45,27.54-21.51,39.8-32.1,97.44-12.68,110.12,37.2a84.1,84.1,0,0,1,1.53,10.16c12.68,100,10.77,102.17-89.72,102.16-53.68,0-107.37-.86-161,.39-24.13.57-33.49-8.91-31.8-32.18,1.89-26-.83-53,5.4-77.89,14.3-57.08,70.93-73.08,115.33-35.09C630.47,1233.33,638,1238.19,646.32,1244.31Zm110.76,98.87c0-25.35,3.25-48.61-1.2-70.29-2.74-13.36-15-29.47-27.14-34.76-10.21-4.44-27.19,3.3-39.77,8.84-8.93,3.93-14.52,16.57-23.4,19.19a72,72,0,0,1-38,.26c-8.91-2.5-15.41-13-23.41-19.43-28.82-23.13-63.3-12-69,24.32-3.63,23-.67,47-.67,71.87Z"/><path class="cls-2" d="M1298.76,1242.32c24-13.25,43.27-30.23,65-34.49,35.06-6.86,67.41,14.88,74.61,50.21,6.49,31.83,5.1,65.56,4.08,98.36-.17,5.55-16,15.07-24.67,15.2-76.55,1.21-153.13.36-229.7,1-18.8.14-27.46-6.41-26.62-25.82s.85-38.88,0-58.27c-1.44-34.14,10.94-60.6,42.48-75.18,31.76-14.67,59.77-8.1,82.68,19C1290.29,1236.48,1295.3,1239.48,1298.76,1242.32Zm-108.91,99.44h226c0-22.19,3.7-42.56-1.11-60.66-4.24-15.93-15.06-35.39-28.49-41.91-10.68-5.18-32.65,2.94-44.47,11.91-40.57,30.81-38.77,30.75-78.79-.67-11.52-9-33.84-16.59-44.53-11.3-13.18,6.51-23.47,26.1-27.5,41.95C1186.29,1299.33,1189.85,1319.67,1189.85,1341.76Z"/><path class="cls-2" d="M978.1,1245.17c9.88-8,18-14.1,25.7-20.77,38.82-33.68,99.35-16.76,110.13,33.91,6.54,30.78,4.6,63.69,3.35,95.52-.25,6.43-14.45,17.51-22.38,17.65-77.84,1.34-155.72.44-233.58,1.07-18.74.16-23.76-8.7-23.39-25.17.49-21.75.79-43.54,0-65.26-1.19-32.14,12.12-55.49,41.17-68.62,28.59-12.92,55.29-10.74,77.82,13.92C962.2,1233.22,969,1237.65,978.1,1245.17Zm113.47,98.15c0-23.43,3.88-44.8-1.2-63.78-4.23-15.79-16.26-34-30-41.2-9.63-5.06-28.52,5.29-42.28,11.1-8,3.4-13.3,14.65-21.24,16.62-12.15,3-26.28,3.73-38.12.35-8.85-2.53-15.14-13.39-23-20-27.47-23-65.08-9.94-69.1,25.28-2.66,23.23-.51,47-.51,71.61Z"/><path class="cls-2" d="M1069.67,705.35,1043.42,685c11.09-4.49,22.18-12.41,33.26-12.41,9.62,0,19.24,9,28.85,14Z"/><path class="cls-2" d="M873.88,705.18l-29.8-18.79c9.65-5,19.45-14.11,28.91-13.78,11.08.39,21.86,9,32.77,14.12Z"/><path class="cls-2" d="M1075.37,588.81l30,20.6c-11.45,4.49-22.75,11.91-34.4,12.52-8.92.47-18.29-7.67-27.46-12Z"/><path class="cls-2" d="M872.4,630.28,844.25,608.2c10-4.14,20.06-11.54,30.08-11.53,10.46,0,20.91,7.14,31.37,11.16Z"/><path class="cls-2" d="M906.15,538.34c-18.46.64-36.93,1.66-55.38,1.44-2.22,0-7-7.92-6-10.16,2.47-5.6,7.5-14.17,11.61-14.23,16.52-.23,33.07,2.32,49.61,3.85Q906.07,528.78,906.15,538.34Z"/><path class="cls-2" d="M975.63,548.47l-32.49-18.09c10.52-5.53,20.86-14.93,31.63-15.44,9.53-.45,19.53,9,29.32,14Z"/><path class="cls-2" d="M1109.05,531.36c-7.87,4.64-12.74,10-17.13,9.64-16-1.36-31.75-4.64-47.61-7.2,2.49-5.67,3.93-15.39,7.63-16.34C1071,512.53,1091.4,506.84,1109.05,531.36Z"/><path class="cls-2" d="M975.21,665l28.9,20.62c-10.87,4.48-21.72,12.36-32.62,12.4-9.4,0-18.84-8.82-28.27-13.75Z"/><path class="cls-2" d="M971.8,630.22l-28.64-22.11c11.33-4.11,22.54-10.93,34-11.46,8.79-.4,18,7.13,27,11.14Z"/></svg>