<svg id="Capa_1" data-name="Capa 1" xmlns="http://www.w3.org/2000/svg" viewBox="0 0 2000 2000"><defs><style>.cls-1{fill:#fff;}</style></defs><title>ICONOS</title><path class="cls-1" d="M1000.26,505.7c154.43,0,172.72.59,233.71,3.37,56.39,2.58,87,12,107.39,19.92,27,10.49,46.27,23,66.51,43.26s32.77,39.51,43.26,66.51c7.92,20.38,17.34,51,19.92,107.39,2.78,61,3.37,79.28,3.37,233.72s-.59,172.72-3.37,233.71c-2.58,56.39-12,87-19.92,107.39-10.49,27-23,46.27-43.26,66.51s-39.51,32.77-66.51,43.26c-20.38,7.92-51,17.34-107.39,19.92-61,2.78-79.27,3.37-233.71,3.37s-172.74-.59-233.72-3.37c-56.39-2.58-87-12-107.39-19.92-27-10.49-46.27-23-66.51-43.26S559.87,1348,549.38,1321c-7.92-20.38-17.34-51-19.92-107.39-2.78-61-3.37-79.28-3.37-233.71s.59-172.73,3.37-233.72c2.58-56.39,12-87,19.92-107.39,10.49-27,23-46.27,43.26-66.51s39.51-32.77,66.51-43.26c20.38-7.92,51-17.34,107.39-19.92,61-2.78,79.28-3.37,233.72-3.37m0-104.21c-157.08,0-176.78.67-238.47,3.48s-103.6,12.59-140.39,26.88c-38,14.79-70.29,34.56-102.45,66.71S467,563,452.24,601C438,637.8,428.17,679.84,425.36,741.4s-3.48,81.39-3.48,238.47.67,176.77,3.48,238.46,12.59,103.6,26.88,140.39c14.78,38,34.56,70.29,66.71,102.45s64.41,51.93,102.45,66.71c36.79,14.29,78.83,24.07,140.39,26.88s81.39,3.48,238.47,3.48,176.77-.66,238.46-3.48,103.6-12.59,140.39-26.88c38-14.78,70.29-34.56,102.45-66.71s51.93-64.41,66.71-102.45c14.29-36.79,24.07-78.83,26.88-140.39s3.48-81.39,3.48-238.46-.67-176.78-3.48-238.47S1562.56,637.8,1548.27,601c-14.78-38-34.56-70.29-66.71-102.45s-64.41-51.92-102.45-66.71c-36.79-14.29-78.83-24.07-140.39-26.88s-81.39-3.48-238.46-3.48Z"/><path class="cls-1" d="M1000.26,682.86c-164,0-297,133-297,297s133,297,297,297,297-133,297-297S1164.29,682.86,1000.26,682.86Zm0,489.8c-106.48,0-192.8-86.32-192.8-192.79s86.32-192.8,192.8-192.8,192.79,86.32,192.79,192.8S1106.73,1172.66,1000.26,1172.66Z"/><circle class="cls-1" cx="1308.99" cy="671.13" r="69.41"/></svg>