<svg id="Capa_1" data-name="Capa 1" xmlns="http://www.w3.org/2000/svg" viewBox="0 0 2000 2000"><defs><style>.cls-1{fill:#fff;fill-rule:evenodd;}</style></defs><title>ICONOS</title><path class="cls-1" d="M999.57,263.42c-391,0-694.05,286.4-694.05,673.24,0,202.34,82.93,377.18,218,497.95a55.45,55.45,0,0,1,18.65,39.58l3.78,123.45c1.21,39.38,41.88,65,77.92,49.1l137.76-60.82a55.44,55.44,0,0,1,37.07-2.72,756.7,756.7,0,0,0,200.9,26.68c391,0,694.06-286.39,694.06-673.22S1390.55,263.42,999.57,263.42Zm416.78,518-203.87,323.47a104.12,104.12,0,0,1-150.54,27.76L899.78,1011a41.66,41.66,0,0,0-50.16.15l-219,166.21c-29.23,22.18-67.39-12.8-47.82-43.84L786.68,810.08A104.1,104.1,0,0,1,937.21,782.3l162.16,121.62a41.64,41.64,0,0,0,50.16-.14l219-166.21C1397.76,715.39,1435.91,750.37,1416.35,781.41Z"/></svg>