<svg id="Capa_1" data-name="Capa 1" xmlns="http://www.w3.org/2000/svg" viewBox="0 0 2000 2000"><defs><style>.cls-1{fill:#fff;fill-rule:evenodd;}</style></defs><title>ICONOS</title><g id="WA_Logo" data-name="WA Logo"><path class="cls-1" d="M1415.09,495.6c-110-110.11-256.33-170.78-412.21-170.84-321.2,0-582.61,261.31-582.74,582.51a581.42,581.42,0,0,0,77.78,291.23l-82.67,301.88,308.92-81a582.41,582.41,0,0,0,278.47,70.9h.24c321.16,0,582.6-261.34,582.73-582.54C1585.67,752.07,1525.12,605.71,1415.09,495.6Zm-412.21,896.29h-.2a483.8,483.8,0,0,1-246.51-67.49l-17.69-10.5L555.17,1362,604.1,1183.3,592.58,1165A482.93,482.93,0,0,1,518.53,907.3c.1-267,217.38-484.16,484.54-484.16,129.37.05,251,50.48,342.43,142s141.77,213.18,141.72,342.55C1487.12,1174.68,1269.84,1391.89,1002.88,1391.89Zm265.67-362.64c-14.56-7.28-86.14-42.5-99.49-47.35s-23-7.29-32.76,7.28-37.61,47.36-46.1,57.07-17,10.94-31.55,3.65-61.48-22.66-117.09-72.25c-43.29-38.59-72.51-86.26-81-100.83s-.91-22.46,6.38-29.71c6.55-6.52,14.56-17,21.84-25.5s9.71-14.57,14.56-24.29,2.43-18.21-1.21-25.5-32.76-78.93-44.89-108.07c-11.82-28.39-23.83-24.55-32.76-25-8.49-.42-18.2-.51-27.91-.51s-25.48,3.64-38.83,18.21-51,49.79-51,121.43S759,918.75,766.24,928.47,868.91,1085.21,1015,1148.26a840,840,0,0,0,83,30.66c34.89,11.08,66.63,9.51,91.72,5.77,28-4.18,86.14-35.22,98.28-69.22s12.13-63.14,8.49-69.22S1283.11,1036.54,1268.55,1029.25Z"/></g></svg>